<svg width="40" height="40" viewBox="0 0 196 196" fill="none" xmlns="http://www.w3.org/2000/svg">
<rect width="196" height="196" fill="#181C23"/>
<path d="M34.9999 60H55.6449L70.2461 108.057C71.2069 111.221 72.0222 114.694 72.0222 114.694C72.0222 114.694 73.2846 110.933 74.5805 107.946L82.624 89.2724C83.8835 86.367 85.9752 83.8917 88.6412 82.1526C91.3073 80.4129 94.4291 79.4857 97.6218 79.4857C100.814 79.4857 103.936 80.4129 106.602 82.1526C109.268 83.8917 111.36 86.367 112.619 89.2724L132.125 133.954V143.911H119.367C117.23 143.912 115.14 143.281 113.366 142.098C111.593 140.916 110.216 139.236 109.413 137.274L97.5493 108.511L86.2438 137.196C85.4551 139.201 84.0739 140.924 82.2795 142.138C80.4853 143.353 78.3622 144.002 76.1892 144H68.4698C66.3256 143.996 64.2391 143.313 62.5147 142.051C60.7903 140.789 59.5182 139.014 58.8844 136.986L34.9999 60Z" fill="#FEFEFE"/>
<path d="M153.928 91.5L163.625 60H141.822L132.125 91.5H153.928Z" fill="url(#paint0_linear_2790_56661)"/>
<path d="M128.675 102L117.685 137.174C117.685 137.174 117.685 137.174 117.685 137.251C117.018 139.218 115.914 142.065 113.006 141.889C112.338 141.927 111.677 141.742 111.125 141.362C113.044 143.06 115.512 143.998 118.069 144H131.059C132.98 143.833 134.81 143.094 136.313 141.879C137.816 140.663 138.925 139.025 139.5 137.174L150.5 102H128.675Z" fill="url(#paint1_linear_2790_56661)"/>
<defs>
<linearGradient id="paint0_linear_2790_56661" x1="121.828" y1="143.789" x2="148.933" y2="60.6388" gradientUnits="userSpaceOnUse">
<stop stop-color="#59B0FE"/>
<stop offset="1" stop-color="#26FEFE"/>
</linearGradient>
<linearGradient id="paint1_linear_2790_56661" x1="136.144" y1="143.744" x2="154.476" y2="60.6679" gradientUnits="userSpaceOnUse">
<stop stop-color="#59B0FE"/>
<stop offset="1" stop-color="#26FEFE"/>
</linearGradient>
</defs>
</svg>
