<?xml version="1.0" encoding="UTF-8"?><svg id="Layer_2" xmlns="http://www.w3.org/2000/svg" xmlns:xlink="http://www.w3.org/1999/xlink" viewBox="0 0 355.91 54" width="200"><defs><style>.cls-1{fill:url(#linear-gradient);}.cls-2{fill:#fff;}.cls-3{fill:url(#linear-gradient-3);}.cls-4{fill:url(#linear-gradient-4);}.cls-5{fill:url(#linear-gradient-2);}.cls-6{fill:url(#linear-gradient-6);}.cls-7{fill:url(#linear-gradient-7);}.cls-8{fill:url(#linear-gradient-5);}</style><linearGradient id="linear-gradient" x1="242.02" y1="-2.26" x2="204.93" y2="50.71" gradientUnits="userSpaceOnUse"><stop offset="0" stop-color="#47fcaa"/><stop offset=".5" stop-color="#00b5ff"/><stop offset=".58" stop-color="#01aefa"/><stop offset=".69" stop-color="#069dee"/><stop offset=".81" stop-color="#0d81da"/><stop offset=".95" stop-color="#185abe"/><stop offset="1" stop-color="#1d4ab3"/></linearGradient><linearGradient id="linear-gradient-2" x1="264.59" y1="-1.49" x2="236.98" y2="50.06" xlink:href="#linear-gradient"/><linearGradient id="linear-gradient-3" x1="277.28" y1="5.31" x2="249.68" y2="56.85" xlink:href="#linear-gradient"/><linearGradient id="linear-gradient-4" x1="347.55" y1="14.23" x2="281.18" y2="40" xlink:href="#linear-gradient"/><linearGradient id="linear-gradient-5" x1="344.48" y1="8.89" x2="278.11" y2="34.66" xlink:href="#linear-gradient"/><linearGradient id="linear-gradient-6" x1="340.76" y1="1.88" x2="274.38" y2="27.65" xlink:href="#linear-gradient"/><linearGradient id="linear-gradient-7" x1="358.27" y1="1.8" x2="239.55" y2="51.35" xlink:href="#linear-gradient"/></defs><g id="Layer_6"><path class="cls-2" d="m108.57,0c-14.91,0-27,12.09-27,27s12.09,27,27,27,27-12.09,27-27S123.48,0,108.57,0Zm0,41.5c-8.01,0-14.5-6.49-14.5-14.5s6.49-14.5,14.5-14.5,14.5,6.49,14.5,14.5-6.49,14.5-14.5,14.5Z"/><path class="cls-2" d="m171.57,0c-14.91,0-27,12.09-27,27s12.09,27,27,27,27-12.09,27-27S186.48,0,171.57,0Zm0,41.5c-8.01,0-14.5-6.49-14.5-14.5s6.49-14.5,14.5-14.5,14.5,6.49,14.5,14.5-6.49,14.5-14.5,14.5Z"/><path class="cls-2" d="m0,1h13.07l10.27,33.58,7-17.33c.92-2.27,3.12-3.75,5.56-3.75h4.98c2.45,0,4.65,1.48,5.56,3.75l7,17.33,3.85-12.58h13.07l-8.18,26.75c-.77,2.52-3.1,4.25-5.74,4.25h-4.58c-2.45,0-4.65-1.48-5.56-3.75l-7.91-19.57-7.91,19.57c-.92,2.27-3.12,3.75-5.56,3.75h-4.58c-2.64,0-4.97-1.72-5.74-4.25L0,1Z"/><polygon class="cls-2" points="63.71 1 59.89 13.5 72.96 13.5 76.79 1 63.71 1"/><path class="cls-1" d="m241.91,13.5V1h-22.25c-5.52,0-10,4.48-10,10v42.5h12v-19.5h20.25v-12h-20.25v-8.5h20.25Z"/><rect class="cls-5" x="253.91" y="1" width="12" height="12.5"/><rect class="cls-3" x="253.91" y="22" width="12" height="31.5"/><path class="cls-4" d="m340.11,11.96c-1.19-1.32-2.88-1.98-5.02-1.98s-3.8.66-4.99,1.98-1.78,3.26-1.78,5.85v2.52c0,2.57.59,4.51,1.78,5.84,1.18,1.33,2.85,1.99,4.99,1.99s3.81-.66,5.01-1.99,1.79-3.27,1.79-5.84v-2.52c0-2.58-.59-4.53-1.78-5.85Zm-1.81,8.38c0,3.2-1.08,4.8-3.21,4.8s-3.18-1.6-3.18-4.8v-2.52c0-3.2,1.06-4.8,3.18-4.8s3.21,1.6,3.21,4.8v2.52Z"/><path class="cls-8" d="m325.05,27.93l-3.67-7.55c2.02-.84,3.03-2.42,3.03-4.75,0-1.74-.58-3.08-1.73-4.01-1.15-.93-2.78-1.4-4.89-1.4h-6.34v17.7h3.59v-6.95h2.88l3.18,6.95h-.01s3.95.01,3.95.01Zm-5.01-10.51c-.54.34-1.39.51-2.57.51h-2.41v-4.67h2.41c1.16,0,2.01.18,2.55.54h0c.54.36.81.97.81,1.82s-.27,1.45-.8,1.79Z"/><path class="cls-6" d="m305.9,11.67c-1.15-.97-2.78-1.45-4.89-1.45h-6.34v17.7h3.59v-6.24h2.74c2.07,0,3.69-.51,4.86-1.53h0c1.17-1.01,1.76-2.42,1.76-4.27s-.58-3.25-1.73-4.22Zm-2.71,6.32c-.56.44-1.46.67-2.69.67h-2.23v-5.39h2.23c2.36,0,3.54.87,3.54,2.61,0,.96-.28,1.66-.85,2.11Z"/><path class="cls-7" d="m337.84,3.13c8.79,0,15.94,7.15,15.94,15.94s-7.15,15.94-15.94,15.94h-41.88c-8.79,0-15.94-7.15-15.94-15.94s7.15-15.94,15.94-15.94h41.88m0-2.13h-41.88c-9.98,0-18.06,8.09-18.06,18.06s8.09,18.06,18.06,18.06h41.88c9.98,0,18.06-8.09,18.06-18.06s-8.09-18.06-18.06-18.06h0Z"/></g></svg>